<mxfile host="app.diagrams.net" modified="2021-09-29T12:01:18.021Z" agent="5.0 (Macintosh; Intel Mac OS X 10_15_7) AppleWebKit/537.36 (KHTML, like Gecko) Chrome/89.0.4389.90 Safari/537.36" etag="rl7YwXcYRJs0BQiUoRs6" version="15.3.5" type="github" pages="2">
  <diagram id="3jQiQct74O-YrrSJR4Z7" name="Page-1">
    <mxGraphModel dx="1684" dy="917" grid="1" gridSize="10" guides="1" tooltips="1" connect="1" arrows="1" fold="1" page="1" pageScale="1" pageWidth="827" pageHeight="1169" math="0" shadow="0">
      <root>
        <mxCell id="0" />
        <mxCell id="1" parent="0" />
        <mxCell id="nzWyNFRZSATG4LxgQZLB-1" value="" style="rounded=0;whiteSpace=wrap;html=1;" parent="1" vertex="1">
          <mxGeometry x="150" y="60" width="300" height="40" as="geometry" />
        </mxCell>
        <mxCell id="nzWyNFRZSATG4LxgQZLB-2" value="안방 컴퓨터의 MAC 주소" style="rounded=0;whiteSpace=wrap;html=1;" parent="1" vertex="1">
          <mxGeometry x="150" y="100" width="300" height="40" as="geometry" />
        </mxCell>
        <mxCell id="nzWyNFRZSATG4LxgQZLB-3" value="" style="rounded=0;whiteSpace=wrap;html=1;" parent="1" vertex="1">
          <mxGeometry x="150" y="140" width="300" height="40" as="geometry" />
        </mxCell>
        <mxCell id="nzWyNFRZSATG4LxgQZLB-4" value="" style="rounded=0;whiteSpace=wrap;html=1;" parent="1" vertex="1">
          <mxGeometry x="150" y="180" width="300" height="40" as="geometry" />
        </mxCell>
        <mxCell id="nzWyNFRZSATG4LxgQZLB-5" value="1번 포트" style="rounded=0;whiteSpace=wrap;html=1;" parent="1" vertex="1">
          <mxGeometry x="20" y="60" width="130" height="40" as="geometry" />
        </mxCell>
        <mxCell id="nzWyNFRZSATG4LxgQZLB-6" value="2번 포트" style="rounded=0;whiteSpace=wrap;html=1;" parent="1" vertex="1">
          <mxGeometry x="20" y="100" width="130" height="40" as="geometry" />
        </mxCell>
        <mxCell id="nzWyNFRZSATG4LxgQZLB-7" value="3번 포트" style="rounded=0;whiteSpace=wrap;html=1;" parent="1" vertex="1">
          <mxGeometry x="20" y="140" width="130" height="40" as="geometry" />
        </mxCell>
        <mxCell id="nzWyNFRZSATG4LxgQZLB-8" value="&lt;span&gt;4번 포트&lt;/span&gt;" style="rounded=0;whiteSpace=wrap;html=1;" parent="1" vertex="1">
          <mxGeometry x="20" y="180" width="130" height="40" as="geometry" />
        </mxCell>
        <mxCell id="nzWyNFRZSATG4LxgQZLB-9" value="" style="rounded=0;whiteSpace=wrap;html=1;" parent="1" vertex="1">
          <mxGeometry x="150" y="310" width="300" height="40" as="geometry" />
        </mxCell>
        <mxCell id="nzWyNFRZSATG4LxgQZLB-10" value="안방 컴퓨터의 MAC 주소" style="rounded=0;whiteSpace=wrap;html=1;" parent="1" vertex="1">
          <mxGeometry x="150" y="350" width="300" height="40" as="geometry" />
        </mxCell>
        <mxCell id="nzWyNFRZSATG4LxgQZLB-11" value="작은방 컴퓨터의 MAC 주소" style="rounded=0;whiteSpace=wrap;html=1;" parent="1" vertex="1">
          <mxGeometry x="150" y="390" width="300" height="40" as="geometry" />
        </mxCell>
        <mxCell id="nzWyNFRZSATG4LxgQZLB-12" value="" style="rounded=0;whiteSpace=wrap;html=1;" parent="1" vertex="1">
          <mxGeometry x="150" y="430" width="300" height="40" as="geometry" />
        </mxCell>
        <mxCell id="nzWyNFRZSATG4LxgQZLB-13" value="1번 포트" style="rounded=0;whiteSpace=wrap;html=1;" parent="1" vertex="1">
          <mxGeometry x="20" y="310" width="130" height="40" as="geometry" />
        </mxCell>
        <mxCell id="nzWyNFRZSATG4LxgQZLB-14" value="&lt;span&gt;2번 포트&lt;/span&gt;" style="rounded=0;whiteSpace=wrap;html=1;" parent="1" vertex="1">
          <mxGeometry x="20" y="350" width="130" height="40" as="geometry" />
        </mxCell>
        <mxCell id="nzWyNFRZSATG4LxgQZLB-15" value="&lt;span&gt;3번 포트&lt;/span&gt;" style="rounded=0;whiteSpace=wrap;html=1;" parent="1" vertex="1">
          <mxGeometry x="20" y="390" width="130" height="40" as="geometry" />
        </mxCell>
        <mxCell id="nzWyNFRZSATG4LxgQZLB-16" value="&lt;span&gt;4번 포트&lt;/span&gt;" style="rounded=0;whiteSpace=wrap;html=1;" parent="1" vertex="1">
          <mxGeometry x="20" y="430" width="130" height="40" as="geometry" />
        </mxCell>
        <mxCell id="nzWyNFRZSATG4LxgQZLB-17" value="" style="rounded=0;whiteSpace=wrap;html=1;" parent="1" vertex="1">
          <mxGeometry x="150" y="550" width="300" height="40" as="geometry" />
        </mxCell>
        <mxCell id="nzWyNFRZSATG4LxgQZLB-18" value="인방 컴퓨터의 MAC 주소" style="rounded=0;whiteSpace=wrap;html=1;" parent="1" vertex="1">
          <mxGeometry x="150" y="590" width="300" height="40" as="geometry" />
        </mxCell>
        <mxCell id="nzWyNFRZSATG4LxgQZLB-19" value="작은방 컴퓨터의 MAC 주소" style="rounded=0;whiteSpace=wrap;html=1;" parent="1" vertex="1">
          <mxGeometry x="150" y="630" width="300" height="40" as="geometry" />
        </mxCell>
        <mxCell id="nzWyNFRZSATG4LxgQZLB-20" value="" style="rounded=0;whiteSpace=wrap;html=1;" parent="1" vertex="1">
          <mxGeometry x="150" y="670" width="300" height="40" as="geometry" />
        </mxCell>
        <mxCell id="nzWyNFRZSATG4LxgQZLB-21" value="1번 포트" style="rounded=0;whiteSpace=wrap;html=1;" parent="1" vertex="1">
          <mxGeometry x="20" y="550" width="130" height="40" as="geometry" />
        </mxCell>
        <mxCell id="nzWyNFRZSATG4LxgQZLB-22" value="192.168.0.100" style="rounded=0;whiteSpace=wrap;html=1;" parent="1" vertex="1">
          <mxGeometry x="20" y="590" width="130" height="40" as="geometry" />
        </mxCell>
        <mxCell id="nzWyNFRZSATG4LxgQZLB-23" value="192.168.0.101" style="rounded=0;whiteSpace=wrap;html=1;" parent="1" vertex="1">
          <mxGeometry x="20" y="630" width="130" height="40" as="geometry" />
        </mxCell>
        <mxCell id="nzWyNFRZSATG4LxgQZLB-24" value="&lt;span style=&quot;color: rgb(0 , 0 , 0) ; font-family: &amp;#34;helvetica&amp;#34; ; font-size: 12px ; font-style: normal ; font-weight: 400 ; letter-spacing: normal ; text-align: center ; text-indent: 0px ; text-transform: none ; word-spacing: 0px ; background-color: rgb(248 , 249 , 250) ; display: inline ; float: none&quot;&gt;4번 포트&lt;/span&gt;" style="rounded=0;whiteSpace=wrap;html=1;" parent="1" vertex="1">
          <mxGeometry x="20" y="670" width="130" height="40" as="geometry" />
        </mxCell>
        <mxCell id="nzWyNFRZSATG4LxgQZLB-25" value="스위치를 작은방 컴퓨터를 연결한 경우" style="rounded=0;whiteSpace=wrap;html=1;" parent="1" vertex="1">
          <mxGeometry x="20" y="250" width="300" height="40" as="geometry" />
        </mxCell>
        <mxCell id="nzWyNFRZSATG4LxgQZLB-26" value="일반적으로 잘못 이해할 수 있는 스위치의 메모리 구조" style="rounded=0;whiteSpace=wrap;html=1;" parent="1" vertex="1">
          <mxGeometry x="20" y="490" width="300" height="40" as="geometry" />
        </mxCell>
        <mxCell id="nzWyNFRZSATG4LxgQZLB-27" value="스위치에 안방 컴퓨터만 연결된 경우" style="rounded=0;whiteSpace=wrap;html=1;" parent="1" vertex="1">
          <mxGeometry x="30" width="300" height="40" as="geometry" />
        </mxCell>
      </root>
    </mxGraphModel>
  </diagram>
  <diagram id="J3t1aLEk7AHMZajoYUsw" name="Page-2">
    <mxGraphModel dx="1684" dy="865" grid="1" gridSize="10" guides="1" tooltips="1" connect="1" arrows="1" fold="1" page="1" pageScale="1" pageWidth="827" pageHeight="1169" math="0" shadow="0">
      <root>
        <mxCell id="XMkhakKNp3aSwuGsUOiJ-0" />
        <mxCell id="XMkhakKNp3aSwuGsUOiJ-1" parent="XMkhakKNp3aSwuGsUOiJ-0" />
        <mxCell id="XMkhakKNp3aSwuGsUOiJ-2" value="&lt;font style=&quot;font-size: 17px&quot;&gt;E&lt;/font&gt;" style="ellipse;whiteSpace=wrap;html=1;aspect=fixed;hachureGap=4;pointerEvents=0;" vertex="1" parent="XMkhakKNp3aSwuGsUOiJ-1">
          <mxGeometry x="240" y="110" width="70" height="70" as="geometry" />
        </mxCell>
        <mxCell id="XMkhakKNp3aSwuGsUOiJ-3" value="&lt;font style=&quot;font-size: 17px&quot;&gt;E&lt;/font&gt;" style="ellipse;whiteSpace=wrap;html=1;aspect=fixed;hachureGap=4;pointerEvents=0;" vertex="1" parent="XMkhakKNp3aSwuGsUOiJ-1">
          <mxGeometry x="180" y="230" width="70" height="70" as="geometry" />
        </mxCell>
        <mxCell id="XMkhakKNp3aSwuGsUOiJ-4" value="&lt;font style=&quot;font-size: 17px&quot;&gt;T&lt;/font&gt;" style="ellipse;whiteSpace=wrap;html=1;aspect=fixed;hachureGap=4;pointerEvents=0;" vertex="1" parent="XMkhakKNp3aSwuGsUOiJ-1">
          <mxGeometry x="360" y="230" width="70" height="70" as="geometry" />
        </mxCell>
        <mxCell id="XMkhakKNp3aSwuGsUOiJ-5" value="" style="endArrow=none;html=1;startSize=14;endSize=14;sourcePerimeterSpacing=8;targetPerimeterSpacing=8;strokeWidth=2;entryX=0;entryY=1;entryDx=0;entryDy=0;exitX=0.5;exitY=0;exitDx=0;exitDy=0;" edge="1" parent="XMkhakKNp3aSwuGsUOiJ-1" source="XMkhakKNp3aSwuGsUOiJ-3" target="XMkhakKNp3aSwuGsUOiJ-2">
          <mxGeometry width="50" height="50" relative="1" as="geometry">
            <mxPoint x="140" y="200" as="sourcePoint" />
            <mxPoint x="190" y="150" as="targetPoint" />
          </mxGeometry>
        </mxCell>
        <mxCell id="XMkhakKNp3aSwuGsUOiJ-6" value="&lt;font style=&quot;font-size: 17px&quot;&gt;+&lt;/font&gt;" style="text;html=1;strokeColor=none;fillColor=none;align=center;verticalAlign=middle;whiteSpace=wrap;rounded=0;hachureGap=4;pointerEvents=0;" vertex="1" parent="XMkhakKNp3aSwuGsUOiJ-1">
          <mxGeometry x="290" y="255" width="40" height="20" as="geometry" />
        </mxCell>
        <mxCell id="XMkhakKNp3aSwuGsUOiJ-8" value="" style="endArrow=none;html=1;startSize=14;endSize=14;sourcePerimeterSpacing=8;targetPerimeterSpacing=8;strokeWidth=2;entryX=1;entryY=1;entryDx=0;entryDy=0;exitX=0.5;exitY=0;exitDx=0;exitDy=0;" edge="1" parent="XMkhakKNp3aSwuGsUOiJ-1" source="XMkhakKNp3aSwuGsUOiJ-4" target="XMkhakKNp3aSwuGsUOiJ-2">
          <mxGeometry width="50" height="50" relative="1" as="geometry">
            <mxPoint x="225" y="260" as="sourcePoint" />
            <mxPoint x="260.25126265847075" y="179.74873734152925" as="targetPoint" />
          </mxGeometry>
        </mxCell>
        <mxCell id="XMkhakKNp3aSwuGsUOiJ-9" value="&lt;font style=&quot;font-size: 17px&quot;&gt;T&lt;/font&gt;" style="ellipse;whiteSpace=wrap;html=1;aspect=fixed;hachureGap=4;pointerEvents=0;" vertex="1" parent="XMkhakKNp3aSwuGsUOiJ-1">
          <mxGeometry x="180" y="360" width="70" height="70" as="geometry" />
        </mxCell>
        <mxCell id="XMkhakKNp3aSwuGsUOiJ-10" value="" style="endArrow=none;html=1;startSize=14;endSize=14;sourcePerimeterSpacing=8;targetPerimeterSpacing=8;strokeWidth=2;entryX=0.5;entryY=1;entryDx=0;entryDy=0;exitX=0.5;exitY=0;exitDx=0;exitDy=0;" edge="1" parent="XMkhakKNp3aSwuGsUOiJ-1" source="XMkhakKNp3aSwuGsUOiJ-9" target="XMkhakKNp3aSwuGsUOiJ-3">
          <mxGeometry width="50" height="50" relative="1" as="geometry">
            <mxPoint x="225" y="260" as="sourcePoint" />
            <mxPoint x="260.25126265847075" y="179.74873734152925" as="targetPoint" />
          </mxGeometry>
        </mxCell>
        <mxCell id="XMkhakKNp3aSwuGsUOiJ-12" value="&lt;font style=&quot;font-size: 17px&quot;&gt;T&lt;/font&gt;" style="ellipse;whiteSpace=wrap;html=1;aspect=fixed;hachureGap=4;pointerEvents=0;" vertex="1" parent="XMkhakKNp3aSwuGsUOiJ-1">
          <mxGeometry x="115" y="480" width="70" height="70" as="geometry" />
        </mxCell>
        <mxCell id="XMkhakKNp3aSwuGsUOiJ-13" value="&lt;font style=&quot;font-size: 17px&quot;&gt;F&lt;/font&gt;" style="ellipse;whiteSpace=wrap;html=1;aspect=fixed;hachureGap=4;pointerEvents=0;" vertex="1" parent="XMkhakKNp3aSwuGsUOiJ-1">
          <mxGeometry x="240" y="480" width="70" height="70" as="geometry" />
        </mxCell>
        <mxCell id="XMkhakKNp3aSwuGsUOiJ-14" value="&lt;font style=&quot;font-size: 17px&quot;&gt;*&lt;/font&gt;" style="text;html=1;strokeColor=none;fillColor=none;align=center;verticalAlign=middle;whiteSpace=wrap;rounded=0;hachureGap=4;pointerEvents=0;" vertex="1" parent="XMkhakKNp3aSwuGsUOiJ-1">
          <mxGeometry x="195" y="505" width="40" height="20" as="geometry" />
        </mxCell>
        <mxCell id="XMkhakKNp3aSwuGsUOiJ-15" value="" style="endArrow=none;html=1;startSize=14;endSize=14;sourcePerimeterSpacing=8;targetPerimeterSpacing=8;strokeWidth=2;entryX=0;entryY=1;entryDx=0;entryDy=0;exitX=0.5;exitY=0;exitDx=0;exitDy=0;" edge="1" parent="XMkhakKNp3aSwuGsUOiJ-1" source="XMkhakKNp3aSwuGsUOiJ-12" target="XMkhakKNp3aSwuGsUOiJ-9">
          <mxGeometry width="50" height="50" relative="1" as="geometry">
            <mxPoint x="225" y="260" as="sourcePoint" />
            <mxPoint x="260.25126265847075" y="179.74873734152925" as="targetPoint" />
          </mxGeometry>
        </mxCell>
        <mxCell id="XMkhakKNp3aSwuGsUOiJ-16" value="" style="endArrow=none;html=1;startSize=14;endSize=14;sourcePerimeterSpacing=8;targetPerimeterSpacing=8;strokeWidth=2;entryX=1;entryY=1;entryDx=0;entryDy=0;exitX=0.5;exitY=0;exitDx=0;exitDy=0;" edge="1" parent="XMkhakKNp3aSwuGsUOiJ-1" source="XMkhakKNp3aSwuGsUOiJ-13" target="XMkhakKNp3aSwuGsUOiJ-9">
          <mxGeometry width="50" height="50" relative="1" as="geometry">
            <mxPoint x="235" y="270" as="sourcePoint" />
            <mxPoint x="270.25126265847075" y="189.74873734152925" as="targetPoint" />
          </mxGeometry>
        </mxCell>
        <mxCell id="XMkhakKNp3aSwuGsUOiJ-17" value="&lt;font style=&quot;font-size: 17px&quot;&gt;F&lt;/font&gt;" style="ellipse;whiteSpace=wrap;html=1;aspect=fixed;hachureGap=4;pointerEvents=0;" vertex="1" parent="XMkhakKNp3aSwuGsUOiJ-1">
          <mxGeometry x="115" y="600" width="70" height="70" as="geometry" />
        </mxCell>
        <mxCell id="XMkhakKNp3aSwuGsUOiJ-18" value="" style="endArrow=none;html=1;startSize=14;endSize=14;sourcePerimeterSpacing=8;targetPerimeterSpacing=8;strokeWidth=2;entryX=0.5;entryY=1;entryDx=0;entryDy=0;exitX=0.5;exitY=0;exitDx=0;exitDy=0;" edge="1" parent="XMkhakKNp3aSwuGsUOiJ-1" source="XMkhakKNp3aSwuGsUOiJ-17" target="XMkhakKNp3aSwuGsUOiJ-12">
          <mxGeometry width="50" height="50" relative="1" as="geometry">
            <mxPoint x="160" y="490" as="sourcePoint" />
            <mxPoint x="200.25126265847075" y="429.74873734152925" as="targetPoint" />
          </mxGeometry>
        </mxCell>
        <mxCell id="XMkhakKNp3aSwuGsUOiJ-19" value="&lt;font style=&quot;font-size: 17px&quot;&gt;F&lt;/font&gt;" style="ellipse;whiteSpace=wrap;html=1;aspect=fixed;hachureGap=4;pointerEvents=0;" vertex="1" parent="XMkhakKNp3aSwuGsUOiJ-1">
          <mxGeometry x="360" y="360" width="70" height="70" as="geometry" />
        </mxCell>
        <mxCell id="XMkhakKNp3aSwuGsUOiJ-20" value="" style="endArrow=none;html=1;startSize=14;endSize=14;sourcePerimeterSpacing=8;targetPerimeterSpacing=8;strokeWidth=2;entryX=0.5;entryY=1;entryDx=0;entryDy=0;exitX=0.5;exitY=0;exitDx=0;exitDy=0;" edge="1" parent="XMkhakKNp3aSwuGsUOiJ-1" source="XMkhakKNp3aSwuGsUOiJ-19" target="XMkhakKNp3aSwuGsUOiJ-4">
          <mxGeometry width="50" height="50" relative="1" as="geometry">
            <mxPoint x="285" y="370" as="sourcePoint" />
            <mxPoint x="285" y="310" as="targetPoint" />
          </mxGeometry>
        </mxCell>
        <mxCell id="XMkhakKNp3aSwuGsUOiJ-21" value="&lt;font style=&quot;font-size: 17px&quot;&gt;id&lt;/font&gt;" style="ellipse;whiteSpace=wrap;html=1;aspect=fixed;hachureGap=4;pointerEvents=0;" vertex="1" parent="XMkhakKNp3aSwuGsUOiJ-1">
          <mxGeometry x="115" y="700" width="70" height="70" as="geometry" />
        </mxCell>
        <mxCell id="XMkhakKNp3aSwuGsUOiJ-22" value="&lt;font style=&quot;font-size: 17px&quot;&gt;id&lt;/font&gt;" style="ellipse;whiteSpace=wrap;html=1;aspect=fixed;hachureGap=4;pointerEvents=0;" vertex="1" parent="XMkhakKNp3aSwuGsUOiJ-1">
          <mxGeometry x="240" y="700" width="70" height="70" as="geometry" />
        </mxCell>
        <mxCell id="XMkhakKNp3aSwuGsUOiJ-23" value="&lt;font style=&quot;font-size: 17px&quot;&gt;id&lt;/font&gt;" style="ellipse;whiteSpace=wrap;html=1;aspect=fixed;hachureGap=4;pointerEvents=0;" vertex="1" parent="XMkhakKNp3aSwuGsUOiJ-1">
          <mxGeometry x="360" y="700" width="70" height="70" as="geometry" />
        </mxCell>
        <mxCell id="XMkhakKNp3aSwuGsUOiJ-24" value="" style="endArrow=none;html=1;startSize=14;endSize=14;sourcePerimeterSpacing=8;targetPerimeterSpacing=8;strokeWidth=2;entryX=0.5;entryY=1;entryDx=0;entryDy=0;exitX=0.5;exitY=0;exitDx=0;exitDy=0;" edge="1" parent="XMkhakKNp3aSwuGsUOiJ-1" source="XMkhakKNp3aSwuGsUOiJ-23" target="XMkhakKNp3aSwuGsUOiJ-19">
          <mxGeometry width="50" height="50" relative="1" as="geometry">
            <mxPoint x="225" y="370" as="sourcePoint" />
            <mxPoint x="225" y="310" as="targetPoint" />
          </mxGeometry>
        </mxCell>
        <mxCell id="XMkhakKNp3aSwuGsUOiJ-25" value="" style="endArrow=none;html=1;startSize=14;endSize=14;sourcePerimeterSpacing=8;targetPerimeterSpacing=8;strokeWidth=2;entryX=0.5;entryY=1;entryDx=0;entryDy=0;exitX=0.5;exitY=0;exitDx=0;exitDy=0;" edge="1" parent="XMkhakKNp3aSwuGsUOiJ-1" source="XMkhakKNp3aSwuGsUOiJ-22" target="XMkhakKNp3aSwuGsUOiJ-13">
          <mxGeometry width="50" height="50" relative="1" as="geometry">
            <mxPoint x="235" y="380" as="sourcePoint" />
            <mxPoint x="235" y="320" as="targetPoint" />
          </mxGeometry>
        </mxCell>
        <mxCell id="XMkhakKNp3aSwuGsUOiJ-26" value="" style="endArrow=none;html=1;startSize=14;endSize=14;sourcePerimeterSpacing=8;targetPerimeterSpacing=8;strokeWidth=2;entryX=0.5;entryY=0;entryDx=0;entryDy=0;exitX=0.5;exitY=1;exitDx=0;exitDy=0;" edge="1" parent="XMkhakKNp3aSwuGsUOiJ-1" source="XMkhakKNp3aSwuGsUOiJ-17" target="XMkhakKNp3aSwuGsUOiJ-21">
          <mxGeometry width="50" height="50" relative="1" as="geometry">
            <mxPoint x="245" y="390" as="sourcePoint" />
            <mxPoint x="245" y="330" as="targetPoint" />
          </mxGeometry>
        </mxCell>
        <mxCell id="XMkhakKNp3aSwuGsUOiJ-27" value="&lt;font style=&quot;font-size: 17px&quot;&gt;*&lt;/font&gt;" style="text;html=1;strokeColor=none;fillColor=none;align=center;verticalAlign=middle;whiteSpace=wrap;rounded=0;hachureGap=4;pointerEvents=0;" vertex="1" parent="XMkhakKNp3aSwuGsUOiJ-1">
          <mxGeometry x="195" y="725" width="40" height="20" as="geometry" />
        </mxCell>
        <mxCell id="XMkhakKNp3aSwuGsUOiJ-28" value="&lt;font style=&quot;font-size: 17px&quot;&gt;+&lt;/font&gt;" style="text;html=1;strokeColor=none;fillColor=none;align=center;verticalAlign=middle;whiteSpace=wrap;rounded=0;hachureGap=4;pointerEvents=0;" vertex="1" parent="XMkhakKNp3aSwuGsUOiJ-1">
          <mxGeometry x="320" y="725" width="40" height="20" as="geometry" />
        </mxCell>
      </root>
    </mxGraphModel>
  </diagram>
</mxfile>
